<?xml version="1.0" encoding="UTF-8" standalone="no"?>
<svg
   xmlns:dc="http://purl.org/dc/elements/1.1/"
   xmlns:cc="http://creativecommons.org/ns#"
   xmlns:rdf="http://www.w3.org/1999/02/22-rdf-syntax-ns#"
   xmlns:svg="http://www.w3.org/2000/svg"
   xmlns="http://www.w3.org/2000/svg"
   xmlns:sodipodi="http://sodipodi.sourceforge.net/DTD/sodipodi-0.dtd"
   xmlns:inkscape="http://www.inkscape.org/namespaces/inkscape"
   version="1.1"
   viewBox="0.0 0.0 960.0 720.0"
   fill="none"
   stroke="none"
   stroke-linecap="square"
   stroke-miterlimit="10"
   id="svg133"
   sodipodi:docname="torus.svg"
   inkscape:version="0.92.4 5da689c313, 2019-01-14">
  <metadata
     id="metadata139">
    <rdf:RDF>
      <cc:Work
         rdf:about="">
        <dc:format>image/svg+xml</dc:format>
        <dc:type
           rdf:resource="http://purl.org/dc/dcmitype/StillImage" />
      </cc:Work>
    </rdf:RDF>
  </metadata>
  <defs
     id="defs137" />
  <sodipodi:namedview
     pagecolor="#ffffff"
     bordercolor="#666666"
     borderopacity="1"
     objecttolerance="10"
     gridtolerance="10"
     guidetolerance="10"
     inkscape:pageopacity="0"
     inkscape:pageshadow="2"
     inkscape:window-width="1920"
     inkscape:window-height="1144"
     id="namedview135"
     showgrid="false"
     inkscape:zoom="1.3111111"
     inkscape:cx="379.1512"
     inkscape:cy="521.3727"
     inkscape:window-x="0"
     inkscape:window-y="32"
     inkscape:window-maximized="1"
     inkscape:current-layer="g131" />
  <clipPath
     id="p.0">
    <path
       d="m0 0l960.0 0l0 720.0l-960.0 0l0 -720.0z"
       clip-rule="nonzero"
       id="path2" />
  </clipPath>
  <g
     clip-path="url(#p.0)"
     id="g131">
    <path
       fill="#000000"
       fill-opacity="0.0"
       d="m0 0l960.0 0l0 720.0l-960.0 0z"
       fill-rule="evenodd"
       id="path5" />
    <path
       fill="#000000"
       fill-opacity="0.0"
       d="m338.81808 346.89862c14.862946 -4.645233 59.76172 -28.18045 89.17758 -27.871368c29.415863 0.3090515 72.76471 24.771545 87.31769 29.72583"
       fill-rule="evenodd"
       id="path7" />
    <path
       stroke="#000000"
       stroke-width="3.0"
       stroke-linejoin="round"
       stroke-linecap="butt"
       d="m338.81808 346.89862c14.862946 -4.645233 59.76172 -28.18045 89.17758 -27.871368c29.415863 0.3090515 72.76471 24.771545 87.31769 29.72583"
       fill-rule="evenodd"
       id="path9" />
    <path
       fill="#000000"
       fill-opacity="0.0"
       d="m30.432339 339.47055l0 0c0 -84.13864 179.6572 -152.34647 401.27557 -152.34647l0 0c221.61838 0 401.2756 68.207825 401.2756 152.34647l0 0c0 84.13861 -179.65723 152.34644 -401.2756 152.34644l0 0c-221.61838 0 -401.27557 -68.207825 -401.27557 -152.34644z"
       fill-rule="evenodd"
       id="path11" />
    <path
       stroke="#000000"
       stroke-width="3.0"
       stroke-linejoin="round"
       stroke-linecap="butt"
       d="m30.432339 339.47055l0 0c0 -84.13864 179.6572 -152.34647 401.27557 -152.34647l0 0c221.61838 0 401.2756 68.207825 401.2756 152.34647l0 0c0 84.13861 -179.65723 152.34644 -401.2756 152.34644l0 0c-221.61838 0 -401.27557 -68.207825 -401.27557 -152.34644z"
       fill-rule="evenodd"
       id="path13"
       style="stroke-width:4;stroke-miterlimit:10;stroke-dasharray:none" />
    <path
       fill="#000000"
       fill-opacity="0.0"
       d="m151.18282 337.62585l0 0c0 -38.999115 129.75282 -70.61417 289.81104 -70.61417l0 0c160.05823 0 289.81104 31.615051 289.81104 70.61417l0 0c0 38.999146 -129.7528 70.6142 -289.81104 70.6142l0 0c-160.0582 0 -289.81104 -31.615051 -289.81104 -70.6142z"
       fill-rule="evenodd"
       id="path15" />
    <path
       stroke="#ff0000"
       stroke-width="3.0"
       stroke-linejoin="round"
       stroke-linecap="butt"
       d="m151.18282 337.62585l0 0c0 -38.999115 129.75282 -70.61417 289.81104 -70.61417l0 0c160.05823 0 289.81104 31.615051 289.81104 70.61417l0 0c0 38.999146 -129.7528 70.6142 -289.81104 70.6142l0 0c-160.0582 0 -289.81104 -31.615051 -289.81104 -70.6142z"
       fill-rule="evenodd"
       id="path17" />
    <path
       fill="#000000"
       fill-opacity="0.0"
       d="m283.23395 339.74146c0 -27.353302 64.39343 -49.527557 143.82675 -49.527557l0 0c79.43335 0 143.82675 22.174255 143.82675 49.527557l0 0c0 27.353333 -64.3934 49.527557 -143.82675 49.527557l0 0c-79.43332 0 -143.82675 -22.174225 -143.82675 -49.527557z"
       fill-rule="evenodd"
       id="path19" />
    <path
       stroke="#38761d"
       stroke-width="1.0"
       stroke-linejoin="round"
       stroke-linecap="butt"
       d="m283.23395 339.74146c0 -27.353302 64.39343 -49.527557 143.82675 -49.527557l0 0c79.43335 0 143.82675 22.174255 143.82675 49.527557l0 0c0 27.353333 -64.3934 49.527557 -143.82675 49.527557l0 0c-79.43332 0 -143.82675 -22.174225 -143.82675 -49.527557z"
       fill-rule="evenodd"
       id="path21"
       style="stroke-width:2;stroke-miterlimit:10;stroke-dasharray:none" />
    <path
       fill="#000000"
       fill-opacity="0.0"
       d="m730.8049 337.62585l57.417297 -66.77164"
       fill-rule="evenodd"
       id="path23" />
    <path
       stroke="#000000"
       stroke-width="1.0"
       stroke-linejoin="round"
       stroke-linecap="butt"
       d="m730.8049 337.62585l57.417297 -66.77164"
       fill-rule="evenodd"
       id="path25"
       style="stroke-width:2.4;stroke-miterlimit:10;stroke-dasharray:none" />
    <path
       fill="#000000"
       fill-opacity="0.0"
       d="m728.952 339.47055l104.031494 0"
       fill-rule="evenodd"
       id="path27" />
    <path
       stroke="#000000"
       stroke-width="1.0"
       stroke-linejoin="round"
       stroke-linecap="butt"
       d="m728.952 339.47055l104.031494 0"
       fill-rule="evenodd"
       id="path29" />
    <path
       fill="#000000"
       fill-opacity="0.0"
       d="m758.399 304.8132l0 0c10.782532 8.260681 17.105347 21.069794 17.105347 34.652893l-43.653564 0z"
       fill-rule="evenodd"
       id="path31" />
    <path
       stroke="#000000"
       stroke-width="1.0"
       stroke-linejoin="round"
       stroke-linecap="butt"
       d="m760.31854 306.37247l0.04949951 0.041992188c0.63861084 0.55093384 1.2593384 1.1186829 1.8616943 1.7023315c1.204834 1.1673584 2.3363647 2.398407 3.390808 3.685791c2.1091309 2.5747375 3.9102783 5.3747864 5.3745117 8.341156c2.9285889 5.9327393 4.5092773 12.530792 4.5092773 19.322357"
       fill-rule="evenodd"
       id="path35"
       style="stroke-width:2.5;stroke-miterlimit:10;stroke-dasharray:none" />
    <path
       fill="#000000"
       fill-opacity="0.0"
       d="m758.399 304.8132l0 0c10.782532 8.260681 17.105347 21.069794 17.105347 34.652893"
       fill-rule="evenodd"
       id="path33" />
    <path
       d="m 761.10339,307.00999 0.81397,-0.0843 -1.59882,-0.55322 0.86914,1.45148 z"
       id="path37"
       style="fill:#000000;fill-rule:evenodd;stroke:#000000;stroke-width:4;stroke-linecap:butt;stroke-miterlimit:10;stroke-dasharray:none"
       inkscape:connector-curvature="0" />
    <path
       fill="#000000"
       fill-opacity="0.0"
       d="m440.19214 339.47067l489.38586 0"
       fill-rule="evenodd"
       id="path39" />
    <path
       stroke="#666666"
       stroke-width="1.0"
       stroke-linejoin="round"
       stroke-linecap="butt"
       d="m440.19214 339.47067l485.9588 0"
       fill-rule="evenodd"
       id="path41"
       style="stroke-width:2.5;stroke-miterlimit:10;stroke-dasharray:none" />
    <path
       fill="#666666"
       stroke="#666666"
       stroke-width="1.0"
       stroke-linecap="butt"
       d="m926.15094 339.47067l-1.1246338 1.1246033l3.0897827 -1.1246033l-3.0897827 -1.1245728z"
       fill-rule="evenodd"
       id="path43"
       style="stroke-width:4;stroke-miterlimit:10;stroke-dasharray:none" />
    <path
       fill="#000000"
       fill-opacity="0.0"
       d="m440.17584 339.2477l281.7953 -222.74016"
       fill-rule="evenodd"
       id="path45" />
    <path
       stroke="#666666"
       stroke-width="1.0"
       stroke-linejoin="round"
       stroke-linecap="butt"
       d="m440.17584 339.2477l281.7953 -222.74016"
       fill-rule="evenodd"
       id="path47"
       style="stroke-width:2.5;stroke-miterlimit:10;stroke-dasharray:none" />
    <path
       fill="#000000"
       fill-opacity="0.0"
       d="m503.45868 297.02118l0 0c41.90857 9.496185 67.34723 26.100494 67.34723 43.958923l-143.82678 0z"
       fill-rule="evenodd"
       id="path49" />
    <path
       fill="#000000"
       fill-opacity="0.0"
       d="m503.45868 297.02118l0 0c41.90857 9.496185 67.34723 26.100494 67.34723 43.958923"
       fill-rule="evenodd"
       id="path51" />
    <path
       stroke="#000000"
       stroke-width="1.0"
       stroke-linejoin="round"
       stroke-linecap="butt"
       d="m505.86765 297.58057l1.4714661 0.35153198c1.2771912 0.31045532 2.538025 0.62768555 3.7822266 0.95150757c2.4884644 0.647583 4.9103394 1.3215637 7.26355 2.0204163c4.70636 1.3977051 9.137817 2.89505 13.276978 4.480591c8.278259 3.171112 15.387024 6.694977 21.186157 10.480164c11.598206 7.5704346 17.957886 16.186127 17.957886 25.115326"
       fill-rule="evenodd"
       id="path53"
       style="stroke-width:2.5;stroke-miterlimit:10;stroke-dasharray:none" />
    <path
       fill="#000000"
       stroke="#000000"
       stroke-width="1.0"
       stroke-linecap="butt"
       d="m505.86765 297.58057l0.69451904 -0.43273926l-1.6794434 0.20404053l1.4176636 0.9232178z"
       fill-rule="evenodd"
       id="path55"
       style="stroke-width:3.8;stroke-miterlimit:10;stroke-dasharray:none" />
    <path
       fill="#000000"
       fill-opacity="0.0"
       d="m296.0627 357.28903l61.13388 -61.13385"
       fill-rule="evenodd"
       id="path57" />
    <path
       stroke="#999999"
       stroke-width="1.0"
       stroke-linejoin="round"
       stroke-linecap="butt"
       d="m296.0627 357.28903l61.13388 -61.13385"
       fill-rule="evenodd"
       id="path59" />
    <path
       fill="#000000"
       fill-opacity="0.0"
       d="m325.35983 374.76273l85.88974 -85.76376"
       fill-rule="evenodd"
       id="path61" />
    <path
       stroke="#999999"
       stroke-width="1.0"
       stroke-linejoin="round"
       stroke-linecap="butt"
       d="m325.35983 374.76273l85.88974 -85.76376"
       fill-rule="evenodd"
       id="path63" />
    <path
       fill="#000000"
       fill-opacity="0.0"
       d="m361.33237 383.70798l91.68503 -91.68506"
       fill-rule="evenodd"
       id="path65" />
    <path
       stroke="#999999"
       stroke-width="1.0"
       stroke-linejoin="round"
       stroke-linecap="butt"
       d="m361.33237 383.70798l91.68503 -91.68506"
       fill-rule="evenodd"
       id="path67" />
    <path
       fill="#000000"
       fill-opacity="0.0"
       d="m400.6997 387.8519l92.22049 -92.22046"
       fill-rule="evenodd"
       id="path69" />
    <path
       stroke="#999999"
       stroke-width="1.0"
       stroke-linejoin="round"
       stroke-linecap="butt"
       d="m400.6997 387.8519l92.22049 -92.22046"
       fill-rule="evenodd"
       id="path71" />
    <path
       fill="#000000"
       fill-opacity="0.0"
       d="m448.35495 389.92386l80.409454 -85.22833"
       fill-rule="evenodd"
       id="path73" />
    <path
       stroke="#999999"
       stroke-width="1.0"
       stroke-linejoin="round"
       stroke-linecap="butt"
       d="m448.35495 389.92386l80.409454 -85.22833"
       fill-rule="evenodd"
       id="path75" />
    <path
       fill="#000000"
       fill-opacity="0.0"
       d="m490.8275 385.77994l67.08661 -67.08661"
       fill-rule="evenodd"
       id="path77" />
    <path
       stroke="#999999"
       stroke-width="1.0"
       stroke-linejoin="round"
       stroke-linecap="butt"
       d="m490.8275 385.77994l67.08661 -67.08661"
       fill-rule="evenodd"
       id="path79" />
    <path
       fill="#000000"
       fill-opacity="0.0"
       d="m576.83856 361.58252l59.968506 -103.811005"
       fill-rule="evenodd"
       id="path81" />
    <path
       stroke="#666666"
       stroke-width="1.0"
       stroke-linejoin="round"
       stroke-linecap="butt"
       d="m576.83856 361.58252l59.968506 -103.811005"
       fill-rule="evenodd"
       id="path83" />
    <path
       fill="#000000"
       fill-opacity="0.0"
       d="m592.38104 387.48483l79.62207 -137.88979"
       fill-rule="evenodd"
       id="path85" />
    <path
       stroke="#666666"
       stroke-width="1.0"
       stroke-linejoin="round"
       stroke-linecap="butt"
       d="m592.38104 387.48483l79.62207 -137.88979"
       fill-rule="evenodd"
       id="path87" />
    <path
       fill="#000000"
       fill-opacity="0.0"
       d="m609.27515 404.4375l92.66138 -158.14172"
       fill-rule="evenodd"
       id="path89" />
    <path
       stroke="#666666"
       stroke-width="1.0"
       stroke-linejoin="round"
       stroke-linecap="butt"
       d="m609.27515 404.4375l92.66138 -158.14172"
       fill-rule="evenodd"
       id="path91" />
    <path
       fill="#000000"
       fill-opacity="0.0"
       d="m628.6377 415.45364l97.03937 -168.0945"
       fill-rule="evenodd"
       id="path93" />
    <path
       stroke="#666666"
       stroke-width="1.0"
       stroke-linejoin="round"
       stroke-linecap="butt"
       d="m628.6377 415.45364l97.03937 -168.0945"
       fill-rule="evenodd"
       id="path95" />
    <path
       fill="#000000"
       fill-opacity="0.0"
       d="m653.50134 426.85217l99.90546 -173.07086"
       fill-rule="evenodd"
       id="path97" />
    <path
       stroke="#666666"
       stroke-width="1.0"
       stroke-linejoin="round"
       stroke-linecap="butt"
       d="m653.50134 426.85217l99.90546 -173.07086"
       fill-rule="evenodd"
       id="path99" />
    <path
       fill="#000000"
       fill-opacity="0.0"
       d="m701.93396 431.56818l92.66144 -158.11023"
       fill-rule="evenodd"
       id="path101" />
    <path
       stroke="#666666"
       stroke-width="1.0"
       stroke-linejoin="round"
       stroke-linecap="butt"
       d="m701.93396 431.56818l92.66144 -158.11023"
       fill-rule="evenodd"
       id="path103" />
    <path
       fill="#000000"
       fill-opacity="0.0"
       d="m676.29297 429.9574l96.66138 -167.40158"
       fill-rule="evenodd"
       id="path105" />
    <path
       stroke="#666666"
       stroke-width="1.0"
       stroke-linejoin="round"
       stroke-linecap="butt"
       d="m676.29297 429.9574l96.66138 -167.40158"
       fill-rule="evenodd"
       id="path107" />
    <path
       fill="#000000"
       fill-opacity="0.0"
       d="m733.2747 429.9574l80.787415 -139.90552"
       fill-rule="evenodd"
       id="path109" />
    <path
       stroke="#666666"
       stroke-width="1.0"
       stroke-linejoin="round"
       stroke-linecap="butt"
       d="m733.2747 429.9574l80.787415 -139.90552"
       fill-rule="evenodd"
       id="path111" />
    <path
       fill="#000000"
       fill-opacity="0.0"
       d="m762.82605 421.98495l63.118103 -109.322845"
       fill-rule="evenodd"
       id="path113" />
    <path
       stroke="#666666"
       stroke-width="1.0"
       stroke-linejoin="round"
       stroke-linecap="butt"
       d="m762.82605 421.98495l63.118103 -109.322845"
       fill-rule="evenodd"
       id="path115" />
    <path
       fill="#000000"
       fill-opacity="0.0"
       d="m439.66193 0l0 720.0"
       fill-rule="evenodd"
       id="path117" />
    <path
       stroke="#666666"
       stroke-width="1.0"
       stroke-linejoin="round"
       stroke-linecap="butt"
       d="m439.6619 3.4270866l0 716.57294"
       fill-rule="evenodd"
       id="path119"
       style="stroke-width:2.5;stroke-miterlimit:10;stroke-dasharray:none" />
    <path
       fill="#666666"
       stroke="#666666"
       stroke-width="1.0"
       stroke-linecap="butt"
       d="m439.6619 3.4270866l1.1246033 1.1245835l-1.1246033 -3.089768l-1.1245728 3.089768z"
       fill-rule="evenodd"
       id="path121"
       style="stroke-width:4;stroke-miterlimit:10;stroke-dasharray:none" />
    <path
       fill="#000000"
       fill-opacity="0.0"
       d="m570.8946 338.93826l0 0c0 -51.15808 58.668335 -92.62991 131.03937 -92.62991l0 0c72.37103 0 131.03937 41.471832 131.03937 92.62991l0 0c0 51.15811 -58.668335 92.62991 -131.03937 92.62991l0 0c-72.37103 0 -131.03937 -41.4718 -131.03937 -92.62991z"
       fill-rule="evenodd"
       id="path123" />
    <path
       stroke="#cc0000"
       stroke-width="1.0"
       stroke-linejoin="round"
       stroke-linecap="butt"
       d="m570.8946 338.93826l0 0c0 -51.15808 58.668335 -92.62991 131.03937 -92.62991l0 0c72.37103 0 131.03937 41.471832 131.03937 92.62991l0 0c0 51.15811 -58.668335 92.62991 -131.03937 92.62991l0 0c-72.37103 0 -131.03937 -41.4718 -131.03937 -92.62991z"
       fill-rule="evenodd"
       id="path125"
       style="stroke-width:2;stroke-miterlimit:10;stroke-dasharray:none" />
    <path
       fill="#000000"
       fill-opacity="0.0"
       d="m268.22443 330.43518c27.247803 5.516632 108.99118 33.7619 163.48679 33.099792c54.495575 -0.6621399 136.23898 -30.893799 163.48679 -37.07254"
       fill-rule="evenodd"
       id="path127" />
    <path
       stroke="#000000"
       stroke-width="3.0"
       stroke-linejoin="round"
       stroke-linecap="butt"
       d="m268.22443 330.43518c27.247803 5.516632 108.99118 33.7619 163.48679 33.099792c54.495575 -0.6621399 136.23898 -30.893799 163.48679 -37.07254"
       fill-rule="evenodd"
       id="path129" />
  </g>
</svg>
